<svg width="12" height="12" viewBox="0 0 12 12" fill="none" xmlns="http://www.w3.org/2000/svg">
<path d="M6 1C8.8 1 11 3.2 11 6C11 8.8 8.8 11 6 11C3.2 11 1 8.8 1 6C1 3.2 3.2 1 6 1ZM6 0C2.7 0 0 2.7 0 6C0 9.3 2.7 12 6 12C9.3 12 12 9.3 12 6C12 2.7 9.3 0 6 0ZM5.1 8C5.1 8.3 4.8 8.6 4.5 8.6C4.1 8.6 3.9 8.3 3.9 8V4.1C3.9 3.8 4.2 3.5 4.5 3.5C4.8 3.5 5.1 3.7 5.1 4.1V8ZM5.4 6.3C5.2 6.1 5.2 5.8 5.4 5.6L6.7 3.8C6.9 3.6 7.1 3.5 7.3 3.5C7.7 3.5 7.9 3.8 7.9 4.1C7.9 4.3 7.9 4.4 7.8 4.5L6.6 5.9L7.9 7.5C8.1 7.6 8.1 7.8 8.1 8C8.1 8.3 7.9 8.6 7.5 8.6C7.3 8.6 7.1 8.5 6.9 8.3L5.4 6.3Z" fill="#5947B3"/>
</svg>
